<svg xmlns="http://www.w3.org/2000/svg" width="46" height="43"><path data-name="free-icon-windows-logo-464 1 (Traced)" d="M15.7 2.018c-.113.02-.483.076-.822.125A9.771 9.771 0 0011 3.548l-.541.366-.516 1.831c-1.043 3.7-1.587 5.72-2.338 8.7-.422 1.683-.756 3.055-.741 3.055s.372-.093.794-.205a22.576 22.576 0 017.63-.506 26.708 26.708 0 016.406 1.53 6.394 6.394 0 00.632.23c.009-.008.828-3.3 1.82-7.308l1.8-7.295L25.4 3.7a23.775 23.775 0 00-5.39-1.522 32.78 32.78 0 00-4.31-.16zm12.321 4.137c0 .018-.814 3.279-1.808 7.246L24.4 20.617l.359.332A10.3 10.3 0 0029.721 23a23.946 23.946 0 005.818.04 14.008 14.008 0 004.291-1.34c.1-.09 4.223-14.015 4.169-14.072a1.748 1.748 0 00-.464.1 20.119 20.119 0 01-6.1.612 20.126 20.126 0 01-8.5-1.811c-.869-.411-.914-.429-.914-.374zM9.863 19.705a11.485 11.485 0 00-3.589 1.041 2.061 2.061 0 00-.715.472C5.5 21.4 3.5 29.211 2.64 32.574c-.361 1.415-.649 2.579-.64 2.587a7.2 7.2 0 00.691-.269 14.515 14.515 0 016.625-.951A23.126 23.126 0 0116.5 35.83a5.871 5.871 0 00.96.348c.05-.05 3.578-14.33 3.578-14.48a5.637 5.637 0 00-1.868-1 20.5 20.5 0 00-4.558-1.03 29.672 29.672 0 00-4.749.037zm13.68 4.127c-.036.1-3.847 14.223-3.948 14.627-.043.173.023.244.534.575 3.722 2.407 10.583 2.631 14.343.468l.576-.331 2.061-7.035c1.134-3.869 2.053-7.046 2.043-7.059a2.09 2.09 0 00-.46.139c-4.58 1.69-10.915 1.188-14.589-1.157-.363-.231-.534-.3-.56-.226z" fill="#0f6768" fill-rule="evenodd"/></svg>