<svg xmlns="http://www.w3.org/2000/svg" width="36" height="43"><path data-name="free-icon-apple-black-logo-15476 1 (Traced)" d="M25.284 2.025a15.57 15.57 0 00-2.381.862c-3.2 1.519-4.648 3.629-4.78 6.957-.035.864-.023 1.048.065 1.047a14.214 14.214 0 002.162-.537A8.542 8.542 0 0024.8 7.1a7.921 7.921 0 00.853-4.733c-.045-.393-.068-.415-.369-.342zm-1.037 9.408a10.354 10.354 0 00-2.992.873c-2.837 1.137-3.319 1.155-5.644.207a16.889 16.889 0 00-2.269-.791 8.716 8.716 0 00-5.26.578A11.346 11.346 0 002.6 18.746c-1.175 3.569-.6 8.792 1.5 13.687 1.824 4.239 4.679 7.589 7.125 8.357 1.162.365 1.9.267 4.109-.541a10.267 10.267 0 013.421-.893c.977-.05 1.538.083 3.491.829 3.229 1.233 3.89 1.137 6.414-.927 1.659-1.358 2.486-2.481 3.907-5.307A29.609 29.609 0 0034 30.692a1.706 1.706 0 00-.57-.38 8.869 8.869 0 01-4.473-5.812 9.413 9.413 0 01-.149-3.53 9.276 9.276 0 013.618-5.361 1.6 1.6 0 00.422-.392 8.679 8.679 0 00-.9-.968 10.161 10.161 0 00-2.669-1.968 10.1 10.1 0 00-5.032-.848z" fill="#0f6768" fill-rule="evenodd"/></svg>