<svg xmlns="http://www.w3.org/2000/svg" width="35" height="42"><path data-name="free-icon-android-logo-38002 1 (Traced)" d="M11.289 2.078a.385.385 0 00-.087.241 13.353 13.353 0 00.808 1.635 15.767 15.767 0 01.777 1.53 5.691 5.691 0 01-.612.387 9.836 9.836 0 00-4.225 5.163 8.872 8.872 0 00-.445 2.44v.473h20.989v-.39a9.635 9.635 0 00-.448-2.461 9.828 9.828 0 00-4.266-5.255 1.3 1.3 0 01-.546-.441c.013-.055.373-.743.8-1.529a8 8 0 00.752-1.59.283.283 0 00-.412-.244 13.209 13.209 0 00-.957 1.6 8.617 8.617 0 01-.924 1.5 19.576 19.576 0 01-.835-.278 11.174 11.174 0 00-7.316 0 12.9 12.9 0 01-.836.272 7.789 7.789 0 01-.89-1.447c-.436-.8-.837-1.513-.891-1.578a.288.288 0 00-.436-.028zm2.373 6.388a1.1 1.1 0 01.42.716 1.029 1.029 0 01-.437.776.86.86 0 01-1.031-1.358.832.832 0 011.048-.134zm9.628.034a.824.824 0 01.331.582.773.773 0 01-.257.75.644.644 0 01-.524.253.89.89 0 01-.812-.491.755.755 0 01.057-.854.858.858 0 011.205-.24zM3.472 14.467A2.669 2.669 0 002.2 15.715l-.2.423v10.844l.2.425a2.334 2.334 0 004.212.122l.17-.329V15.915l-.16-.3A2.886 2.886 0 005.3 14.528a2.6 2.6 0 00-1.828-.061zm27.334.008a2.654 2.654 0 00-1.216 1.116l-.172.324V27.2l.162.3a2.335 2.335 0 004.222-.1l.2-.425v-10.84l-.244-.5a2.32 2.32 0 00-2.952-1.16zM7.58 22.6c0 7.83 0 7.833.158 8.259a2.785 2.785 0 001.207 1.35 2.816 2.816 0 001.572.222l1.2.026.008.755c0 .415.03 1.741.057 2.946.049 2.181.05 2.193.244 2.563a2.491 2.491 0 001.132 1.091 2.579 2.579 0 001.9 0 2.624 2.624 0 001.157-1.191l.2-.42.023-2.878.023-2.878h3.085l.023 2.878.02 2.877.2.42a2.625 2.625 0 001.157 1.191 2.386 2.386 0 003.049-1.063c.237-.467.29-1.144.291-3.754v-2.54l1.2-.026a2.815 2.815 0 001.572-.222 2.785 2.785 0 001.207-1.35c.158-.426.158-.43.158-8.259v-7.833H7.58V22.6z" fill="#0f6768" fill-rule="evenodd"/></svg>