<svg xmlns="http://www.w3.org/2000/svg" width="65" height="65"><path data-name="premium-icon-payment-5934486 1 (Traced)" d="M23.414 2.076A4.231 4.231 0 0020.7 4.363l-.333.71-.037 5.054-.037 5.054h-5.875c-5.635 0-5.9.013-6.447.262A3.2 3.2 0 006.4 16.9c-.266.493-.275.665-.312 5.485l-.042 4.973-.8.395a6.372 6.372 0 00-2.409 2.319 7.7 7.7 0 00-.6 1.616c-.246.972-.258 1.321-.213 6.217.055 6-.063 5.3 1.628 9.649C4.925 50.837 5.04 51.3 5.04 53.129c0 1.44-.011 1.5-.366 1.952a3.7 3.7 0 00-.508.9 20.434 20.434 0 00.011 4.893 3.805 3.805 0 001.958 1.958c.747.221 15.372.221 16.119 0a3.8 3.8 0 001.958-1.958 20.164 20.164 0 00.007-4.9 3.562 3.562 0 00-1.385-1.7l-.363-.187.763-1.494a13.446 13.446 0 00.914-2.161l.151-.668h15.008l.508 1.11a12.109 12.109 0 0015.23 6.258 12.617 12.617 0 007.131-7.006 12.474 12.474 0 00.32-7.965 12.886 12.886 0 00-4.886-6.6l-.685-.455-.035-8.846c-.035-8.795-.037-8.856-.31-9.361a3.2 3.2 0 00-1.569-1.452c-.549-.249-.812-.259-6.453-.262h-5.881v-2.02l4.609-.039 4.609-.039.663-.35a4.4 4.4 0 001.908-1.911c.331-.636.348-.758.394-2.914l.048-2.25-.324-.324-.325-.328h-5.587l-.311-.679a4.173 4.173 0 00-1.906-1.96l-.663-.35-11-.02c-6.048-.01-11.169.023-11.378.075zm17.672 2.139c-.44 1.059-.443 1.148-.443 12.767V28.4h-18.31V17.034c0-7.746.043-11.485.136-11.729a2.133 2.133 0 011.072-1.132C23.846 4.037 25.644 4 32.55 4c8.169-.007 8.623 0 8.536.215zm4.74.117c.816.609.851.736.926 3.388a8.05 8.05 0 00.286 2.846 2.58 2.58 0 01.217.477 18.96 18.96 0 01-2.289.07h-2.289V8.388a19.685 19.685 0 01.136-3.088 2.181 2.181 0 011.072-1.139 2.384 2.384 0 011.941.172zM30.783 6.339a1.148 1.148 0 00-.312 1.017v.7h-.717a5.312 5.312 0 00-1.24.155 3.8 3.8 0 00-1.958 1.958 12.927 12.927 0 00-.007 3.881 3.286 3.286 0 003.127 2.15h.795v4.069h-.706a1.09 1.09 0 01-1.329-1.017 1.017 1.017 0 10-2.034.011 3.181 3.181 0 003.274 3.037h.795v.7a1.054 1.054 0 102.034 0v-.7h.795a3.281 3.281 0 002.53-1.125c.606-.709.744-1.254.744-2.942s-.139-2.233-.745-2.942a3.281 3.281 0 00-2.53-1.125H32.5V10.1h.71a1.09 1.09 0 011.329 1.017 1.017 1.017 0 102.035-.011A3.181 3.181 0 0033.3 8.063h-.795v-.7a1.09 1.09 0 00-1.017-1.329 1.025 1.025 0 00-.705.305zm22.046 2.095c-.047 1.5-.157 1.785-.918 2.353a2.313 2.313 0 01-2.191 0c-.762-.568-.872-.852-.919-2.353l-.043-1.389h4.114zm-22.358 3.7v2.034h-.706a1.148 1.148 0 01-1.017-.312c-.294-.294-.312-.395-.312-1.723s.018-1.428.312-1.722a1.147 1.147 0 011.017-.312h.705v2.031zm3.757 4.381c.294.294.312.395.312 1.723s-.018 1.428-.312 1.722a1.147 1.147 0 01-1.017.312H32.5V16.2h.71a1.149 1.149 0 011.017.311zM20.3 18.233v1.017h-9.55l-.312.312-.312.312v11.658l-1.017-.006-1.017-.006v-6.713c0-5.677.029-6.77.188-7.077a1.088 1.088 0 01.35-.429c.089-.036 2.751-.07 5.915-.075l5.754-.01v1.017zm34.006-.933c.57.219.578.338.578 8.815 0 4.409-.043 8.013-.095 8.009s-.5-.111-.986-.239l-.89-.232-.063-6.956-.064-6.956-.3-.243c-.284-.23-.563-.243-5.054-.243h-4.755v-2.039h5.711c3.142 0 5.805.036 5.918.084zM20.3 24.845V28.4h-.707a1.148 1.148 0 00-1.017.312.957.957 0 000 1.41l.312.312h25.2l.312-.312a1.025 1.025 0 00.312-.705 1.09 1.09 0 00-1.33-1.017h-.7v-7.12h8.138v12.211h-.497a14.22 14.22 0 00-3.741.768A12.64 12.64 0 0039 42.69l-.231.909-11.244.032-11.244.033-1.045-1.064-1.036-1.068v-2.35a26.985 26.985 0 00-.127-3.036 7.572 7.572 0 00-1.454-2.957l-.458-.489V21.285H20.3v3.56zm-14.241 11v6.172l.311.316a.953.953 0 001.41 0l.312-.312v-8.282l.326-.124a1.907 1.907 0 011.645.18 3.528 3.528 0 011.737 1.794c.27.588.3.857.356 3.56.056 2.506.1 2.985.3 3.348a13.739 13.739 0 001.407 1.653c1.752 1.832 2.171 2.715 2.327 4.912.094 1.306.349 1.721 1.057 1.721a1.165 1.165 0 001.017-.821c0-.169.278-.2 1.971-.2 1.49 0 1.972.039 1.974.159a19.075 19.075 0 01-.922 2.028l-.926 1.87-6.643.006-6.644.006v-1.24c0-1.592-.173-2.283-1.247-5.062a106.022 106.022 0 01-1.312-3.549l-.429-1.271V37.5c0-5.2 0-5.216.3-5.964a4.132 4.132 0 011.538-1.856 54.374 54.374 0 01.133 6.169zm47.364 0a10.855 10.855 0 015.343 3.519 10.168 10.168 0 01-3.555 15.486 8.31 8.31 0 01-4.333.946 9.385 9.385 0 01-7.209-2.93 10.114 10.114 0 01-.812-13.491 10.5 10.5 0 016.208-3.718 15.443 15.443 0 014.356.189zm-.279 8.1l-3.344 3.33-1.319-1.3c-1.117-1.1-1.381-1.3-1.724-1.3a1.064 1.064 0 00-1.03 1.039c0 .363.223.637 1.817 2.231 1.634 1.634 1.86 1.817 2.255 1.817s.73-.292 4.286-3.849c3.481-3.481 3.849-3.889 3.849-4.265a1.063 1.063 0 00-1.034-1.037c-.373 0-.759.342-3.757 3.332zm-14.534 2.1c0 .192.037.651.082 1.018l.08.669L28.44 47.7l-10.331-.032-.284-.985-.285-.983h21.068v.35zM22.021 56.181c.3.3.312.363.312 2.231s-.008 1.927-.312 2.231l-.312.312H6.682l-.312-.312c-.3-.3-.312-.363-.312-2.231s.008-1.927.312-2.231l.312-.312h15.027z" fill="#0f6768" fill-rule="evenodd"/></svg>