<svg xmlns="http://www.w3.org/2000/svg" width="90" height="91"><path data-name="free-icon-wallet-4305399 1 (Traced)" d="M38.711 2.213a5.378 5.378 0 00-2.512 2.6 7.132 7.132 0 00-.206 1.657v.959h-2.317c-2.883 0-3.463.161-4.571 1.269s-1.269 1.688-1.269 4.571v2.317h-8.55c-5.325 0-8.93.069-9.558.182a9.842 9.842 0 00-7.538 7.539c-.254 1.409-.254 56.561 0 57.969a9.842 9.842 0 007.538 7.539c.695.126 12.218.185 37.055.185 40.657 0 37.031.128 38.367-1.358a5.017 5.017 0 00.937-1.491 63.6 63.6 0 00.2-7.814V71.2l.49-.2a4.331 4.331 0 001.91-1.962c.287-.628.31-1.291.31-8.582s-.024-7.954-.31-8.582a4.331 4.331 0 00-1.91-1.962l-.49-.2v-7.15a63.6 63.6 0 00-.2-7.814 5.01 5.01 0 00-.937-1.491c-.964-1.073-1.8-1.358-3.989-1.358h-1.669V18.707c0-9.7-.053-13.371-.2-13.867a5.01 5.01 0 00-.936-1.491c-1.306-1.453.13-1.36-20.684-1.34-12.872.011-18.544.073-18.961.204zm37.645 2.914l.417.417v26.364l-2.751-.047-2.751-.047-.206-1.1a13.562 13.562 0 00-26.644 0l-.206 1.1-2.751.047-2.751.047V5.544l.417-.417.417-.417h36.392zm-30.34 2.609a1.916 1.916 0 00-.525 1.229 2.716 2.716 0 01-2.527 2.527c-1.561.247-1.535.155-1.535 5.481v4.577l.417.417a1.279 1.279 0 001.884 0l.417-.417v-7.409l1.1-.571a5.028 5.028 0 002.474-2.644l.344-.778h1.7c1.578 0 1.729-.03 2.116-.417a1.273 1.273 0 000-1.885c-.399-.406-.481-.417-2.948-.417-2.193 0-2.589.041-2.917.307zm17.584.11a1.273 1.273 0 000 1.885c.387.386.54.417 2.095.417h1.678l.407.868a5.548 5.548 0 002.642 2.645l.918.42v7.468l.417.417a1.279 1.279 0 001.885 0l.417-.417v-4.577c0-5.325.025-5.234-1.535-5.481a2.716 2.716 0 01-2.527-2.527c-.23-1.455-.41-1.536-3.441-1.536-2.472.001-2.556.012-2.956.418zM36 21.024V31.9h-5.445V10.982l.417-.417c.4-.4.5-.417 2.719-.417h2.3v10.875zm-8.156 4.086v6.8l-8.963-.049-8.963-.05-1.1-.528a6.579 6.579 0 01-3.352-3.255 4.643 4.643 0 01-.641-2.92 4.748 4.748 0 01.538-2.758 9.115 9.115 0 011.232-1.888 7.948 7.948 0 013.335-1.968c.363-.085 4.54-.162 9.283-.172l8.623-.017v6.8zm32.2-2.473a10.993 10.993 0 015.258 2.891 13.764 13.764 0 011.763 2.156 12.335 12.335 0 011.39 3.808v.408H47.037v-.409a12.219 12.219 0 011.249-3.558 11.336 11.336 0 014.975-4.561 10.963 10.963 0 016.775-.736zM5.813 32.712a12.27 12.27 0 002.975 1.537c.712.254 4.031.287 37.456.367l36.676.084.325.4c.308.38.325.763.325 7.435v7.034h-8.029c-9.1 0-9.448.04-11.841 1.221a10.947 10.947 0 00-5.952 9.652 10.783 10.783 0 003.14 7.562 11 11 0 004.358 2.774l1.246.455 8.539.052 8.538.051v14.1l-.419.419-.419.419-36.411-.044-36.41-.037-1.135-.538A6.551 6.551 0 015.447 82.4l-.635-1.287-.045-24.63c-.043-23.522-.032-24.619.255-24.4.165.129.521.411.791.629zm7.487 6.4a1.272 1.272 0 000 1.888l.417.418h62.222l.417.417c.365.364.417.569.417 1.622s.052 1.258.417 1.622a1.279 1.279 0 001.884 0c.366-.366.417-.568.417-1.637a8.585 8.585 0 00-.206-1.919 5.082 5.082 0 00-2.617-2.623c-.538-.155-7.883-.2-31.825-.2H13.717zm72.649 13.519c.329.329.34.566.34 7.816s-.01 7.488-.34 7.817-.566.34-9.31.34c-7.4 0-9.14-.044-9.943-.253a8.193 8.193 0 01-5.975-9.85 8.384 8.384 0 015.9-5.948c.71-.192 2.713-.242 9.938-.251 8.831-.01 9.058-.002 9.39.329zm-18.691 3.96a5.381 5.381 0 00-2.512 2.6 4.06 4.06 0 006.811 3.976 3.81 3.81 0 000-5.442 3.991 3.991 0 00-4.299-1.133zm2.3 2.914a1.273 1.273 0 11-.942-.417 1.371 1.371 0 01.943.418zm7.632 16.314c-.365.364-.417.569-.417 1.622s-.053 1.257-.417 1.622l-.417.417H13.717l-.417.42a1.279 1.279 0 000 1.884l.417.416h31.126c23.941 0 31.287-.048 31.825-.207a4.174 4.174 0 001.555-1.062 4.021 4.021 0 001.269-3.474c0-1.069-.051-1.272-.417-1.637a1.273 1.273 0 00-1.885-.001z" fill="#0f6768" fill-rule="evenodd"/></svg>