<svg xmlns="http://www.w3.org/2000/svg" width="52" height="65"><path data-name="free-icon-diploma-4345529 1 (Traced)" d="M36.711 2.156a4.377 4.377 0 00-1.377 1.108 11.762 11.762 0 01-1.247 1.169c-.336.22-.842.23-15.323.287l-14.975.06-.563.331A2.547 2.547 0 002.331 6L2 6.568v54.594l.3.531a3.246 3.246 0 00.816.894l.517.363 19.463.033c21.753.037 20.087.1 20.873-.816a3.135 3.135 0 00.538-.928c.1-.339.138-4.259.138-14.781V32.136h.328a1.557 1.557 0 001.262-.868c.177-.372.2-1.013.2-5.679V20.33l.865-.4c1.654-.756 2.012-1.28 2.28-3.336a3.73 3.73 0 01.532-1.833A4.52 4.52 0 0051 12.383c0-.631-.06-.784-1.021-2.6a4.384 4.384 0 01-.431-1.674 7.828 7.828 0 00-.317-1.582 3.362 3.362 0 00-2.013-1.66 4.648 4.648 0 01-1.925-1.413c-1.568-1.57-1.925-1.67-4.293-1.202a3.44 3.44 0 01-1.846-.052 4.215 4.215 0 00-2.443-.044zm1.968 1.793a6.48 6.48 0 002.982.005c1.309-.31 1.318-.307 2.416.842a5.506 5.506 0 002.193 1.6c1.361.639 1.389.679 1.535 2.141a4.868 4.868 0 00.843 2.549 4.123 4.123 0 01.561 1.311 3.3 3.3 0 01-.552 1.325 4.848 4.848 0 00-.854 2.622c-.125 1.37-.176 1.439-1.546 2.095a5.648 5.648 0 00-2.179 1.6c-1.087 1.138-1.181 1.171-2.418.839a6.484 6.484 0 00-2.922 0c-1.281.309-1.314.3-2.406-.836a5.421 5.421 0 00-2.09-1.533 6.528 6.528 0 01-1.325-.757 2.68 2.68 0 01-.324-1.3 5.6 5.6 0 00-.945-2.857 3.229 3.229 0 01-.484-1.157 3.824 3.824 0 01.542-1.279 5.136 5.136 0 00.886-2.776 2.657 2.657 0 01.326-1.295 6.717 6.717 0 011.333-.76 5.4 5.4 0 002.091-1.537c1.083-1.139 1.158-1.165 2.337-.842zm.128 1.783a7.06 7.06 0 00-5.153 4.71 7.669 7.669 0 00-.055 3.749 6.436 6.436 0 001.844 3.046 6.619 6.619 0 007.844 1.253c1.046-.515 2.31-1.677 2.31-2.124a.766.766 0 00-.52-.858c-.468-.2-.809-.07-1.4.521a5.15 5.15 0 01-4.3 1.351 5.034 5.034 0 01.073-9.943 5.1 5.1 0 015.75 4.507 1.577 1.577 0 00.349 1.086c.605.6 1.477.112 1.477-.835a8.4 8.4 0 00-.776-2.926 6.926 6.926 0 00-7.443-3.537zM30.994 6.9c-.044.213-.107.655-.141.983s-.086.77-.119.983l-.058.387H11.725l-.366.328a1.417 1.417 0 00-.471 1.078A3.148 3.148 0 019.8 12.713a3.865 3.865 0 01-1.916.59 1.14 1.14 0 00-.846.347l-.386.35-.033 14.64c-.018 8.053 0 14.765.034 14.917a.966.966 0 001.612.137c.074-.139.117-5.378.117-14.4V15.11l.6-.128a4.665 4.665 0 003.627-3.617l.072-.328h17.04l-.173.414a2.983 2.983 0 00-.034 1.863 11.074 11.074 0 00.644 1.3 7.231 7.231 0 01.579 1.22l.073.325-9.125.032-9.125.032-.39.39-.39.39-.038 2.844c-.041 3.133.019 3.494.649 3.907.315.206.9.22 10.924.25l10.592.033v3.338c0 3.673.031 3.869.709 4.439a1.814 1.814 0 001.759.192c.185-.071.671-.257 1.081-.412l.746-.282v21.413l-.535.073a4.764 4.764 0 00-3.639 3.436c0 .614.7.576-10.735.576H12.7l-.139-.551A4.656 4.656 0 008.922 52.8l-.54-.074v-2.807c0-2.718-.008-2.816-.259-3.083a.835.835 0 00-1.283.038c-.236.3-.247.458-.247 3.451a19.352 19.352 0 00.138 3.439 1.615 1.615 0 001.513.772 2.779 2.779 0 012.642 2.664 1.8 1.8 0 00.182.683c.387.747-.229.711 12.225.711s11.838.036 12.224-.711a1.762 1.762 0 00.181-.67 2.822 2.822 0 012.5-2.67 1.742 1.742 0 001.557-.635c.225-.369.232-.7.232-11.853 0-9.794.025-11.473.169-11.473a11.421 11.421 0 011.431.489l1.263.489v14.59c0 14.431 0 14.592-.239 14.828s-.4.238-19.3.238c-16.275 0-19.1-.025-19.294-.169-.228-.167-.232-.6-.262-27.063L3.728 7.095l.293-.295.294-.293h26.76zm.285 11.6a3.925 3.925 0 002.062 1.55l.566.223v1.968l-10.169-.03-10.168-.028-.033-2.116-.032-2.116h17.481zM36 22.255a2.694 2.694 0 001.6.579 6.524 6.524 0 001.252-.172 5.33 5.33 0 012.624 0 3.175 3.175 0 002.488-.163l.673-.339v8.182l-.268-.1A20.842 20.842 0 0040.2 28.8a7.677 7.677 0 00-1.731.491l-2.029.774-.745.283v-4.113c.005-3.825.047-4.403.305-3.98zM12.237 27.51a.9.9 0 00-.052 1.52c.161.086 3.135.127 9.283.127 9.836 0 9.455.026 9.626-.654a1.1 1.1 0 00-.472-1.06c-.35-.135-18.102-.07-18.385.067zm.117 4.39a.881.881 0 00-.3 1.461c.172.2.772.208 9.4.208h9.216l.247-.314a.7.7 0 00-.04-1.08l-.288-.334-8.989-.026c-5.054-.015-9.1.023-9.246.085zm-.307 4.619A.81.81 0 0012 37.692l.3.344h11.343l.262-.261a.928.928 0 00.044-1.227c-.212-.234-.357-.239-5.966-.239-5.322-.001-5.762.015-5.936.208zm9.513 5.4a10.562 10.562 0 00-.652 2.817 6.6 6.6 0 01-2.3.183c-2.1.04-2.349.067-2.927.325a2.988 2.988 0 00-1.814 2.717 4.313 4.313 0 002.5 3.24 3.273 3.273 0 001.789.31 2.783 2.783 0 002.522-.972 5.174 5.174 0 001.236-2.543l.373-1.252 1.08-.034 1.08-.034.153.556a1.773 1.773 0 001.082 1.4 1.792 1.792 0 001.652-.048l.52-.236.342.288a2.563 2.563 0 001.94.523 4.381 4.381 0 002.411-.977.853.853 0 00-.1-1.125c-.356-.334-.629-.327-1.412.037-.869.405-1.555.4-1.88-.013a.684.684 0 01-.176-.593.659.659 0 00-.3-.654c-.584-.583-1-.408-1.721.724-.44.691-.621.558-.575-.42a1.066 1.066 0 00-.219-1.071c-.236-.213-.4-.231-1.874-.2l-1.615.038.068-.279c.038-.154.134-.75.213-1.325.142-1.027.139-1.051-.133-1.341a.87.87 0 00-1.263-.046zm-1.131 4.812a14.67 14.67 0 01-.734 2.133 1.908 1.908 0 01-2.81.561 2.282 2.282 0 01-1.227-1.56 1.245 1.245 0 01.873-1.049 26 26 0 013.898-.09z" fill="#0f6768" fill-rule="evenodd"/></svg>