<svg xmlns="http://www.w3.org/2000/svg" width="90" height="90"><path data-name="free-icon-fingerprint-884539 1 (Traced)" d="M3.086 2.166a2.266 2.266 0 00-.723.607C2 3.228 2 3.335 2 10.515V17.8l.468.518a1.926 1.926 0 001.082.616 1.152 1.152 0 001.191-.417L5.316 18l.049-6.3.048-6.3h12.439l.578-.58a1.363 1.363 0 000-2.243L17.852 2l-7.2.011c-3.965.005-7.368.076-7.566.155zm70.076 0a2.019 2.019 0 00-1.087 1.553 1.767 1.767 0 00.5 1.039l.5.555 6.307.048 6.301.049V17.8l.468.518a1.928 1.928 0 001.082.616 1.152 1.152 0 001.191-.417L89 18V2.991l-.556-.5L87.889 2l-7.184.011c-3.951.005-7.345.076-7.542.155zM42.913 6.591a1.855 1.855 0 00-1.4.582 1.694 1.694 0 00.583 2.587 64.95 64.95 0 006.732.074 1.639 1.639 0 001.14-1.563c0-1.05-.527-1.506-1.957-1.69a23.987 23.987 0 00-5.098.01zM32.4 9.61a26.531 26.531 0 00-5.094 3.29 29.086 29.086 0 00-10.28 17.643 38.454 38.454 0 00-.315 7v5.22l.436.437a2.234 2.234 0 001.04.533 1.146 1.146 0 001.181-.416l.576-.514.1-5.324c.086-4.613.149-5.562.478-7.108A25.7 25.7 0 0134.016 12.6c1.881-.981 2.252-1.241 2.451-1.719a1.516 1.516 0 00-.405-1.828c-.702-.697-1.441-.586-3.662.557zm22.621-.553a1.517 1.517 0 00-.4 1.834c.2.467.522.713 1.831 1.382a25.321 25.321 0 017.636 5.463 24 24 0 015.244 8.6c1.341 3.8 1.572 5.528 1.7 12.756l.107 5.919.478.409a1.672 1.672 0 002.664-.6c.315-.76.139-11.588-.225-13.774-1.642-9.882-6.908-17.216-15.427-21.476-2.192-1.096-2.92-1.199-3.607-.513zm-12.542 4.4a19.668 19.668 0 00-4.273 1.048 22.659 22.659 0 00-13.2 12.47c-1.2 3.03-1.637 6.561-1.546 12.357.054 3.427.056 3.438.489 3.871a2.238 2.238 0 001.04.532 1.147 1.147 0 001.182-.416l.576-.514.108-4.729c.059-2.6.2-5.34.314-6.088a17.033 17.033 0 013.68-8.264 18.781 18.781 0 0124.071-4.558c1.7.979 2.41 1.076 3.158.434a1.237 1.237 0 00.477-1.208 1.261 1.261 0 00-.6-1.3 23.7 23.7 0 00-8.2-3.46 26.951 26.951 0 00-7.274-.175zm.369 6.8c-3.443.655-4.838 1.749-4.091 3.207a1.881 1.881 0 002.63.716 14.247 14.247 0 014.153-.77 12.535 12.535 0 015.272 1.306 8.82 8.82 0 013.088 2.255 9.24 9.24 0 012.243 3.08c1.262 2.613 1.3 3 1.3 12.557 0 9.047 0 9.057.931 9.48a1.62 1.62 0 001.605-.044c.885-.457.89-.517.826-10.218-.057-8.683-.072-9.035-.439-10.348a15.769 15.769 0 00-11-10.966 18.324 18.324 0 00-6.516-.258zm18.911 2.125a1.813 1.813 0 00-.638.545c-.487.695-.338 1.421.646 3.142a19.575 19.575 0 011.464 3.34c.925 2.944.9 2.9 1.546 3.246a1.57 1.57 0 002.365-1.4c0-1.666-2.071-6.8-3.354-8.316a1.817 1.817 0 00-2.027-.56zm-18.211 4.685a8.908 8.908 0 00-5.472 4.293c-1.024 2.025-1.038 2.179-1.038 11.365V51.1l.468.519a1.929 1.929 0 001.082.616 1.153 1.153 0 001.191-.416l.576-.514.085-8.637c.083-8.385.1-8.659.451-9.426a5.9 5.9 0 012.585-2.579 4.529 4.529 0 012.067-.362 4.492 4.492 0 013.572 1.437 5.188 5.188 0 011.5 3.222c.169 1.232.648 1.832 1.586 1.983A1.669 1.669 0 0054 35.286c.193-1.712-.925-4.385-2.488-5.945a8.507 8.507 0 00-7.964-2.274zm-11.575 1.687c-.6.507-1.277 2.412-1.565 4.423-.136.949-.177 4.924-.136 13.167.057 11.63.064 11.829.439 13.167a15.555 15.555 0 0013.824 11.411c1.448.1 1.464.1 2.037-.412a1.305 1.305 0 00.578-1.23 1.286 1.286 0 00-.552-1.207 1.638 1.638 0 00-1.322-.492 12.7 12.7 0 01-4.991-1.3 9.215 9.215 0 01-3.081-2.241 9.016 9.016 0 01-2.266-3.085c-1.306-2.689-1.3-2.66-1.3-15.461 0-11.733.047-12.614.77-14.343a1.877 1.877 0 00-.717-2.627 1.467 1.467 0 00-1.718.23zm12.955 5.014a2.266 2.266 0 00-.723.607c-.363.461-.363.489-.363 11.14v10.678l.467.518a1.929 1.929 0 001.082.616 1.153 1.153 0 001.191-.416l.576-.515v-21.8L46.6 34.1a1.408 1.408 0 00-1.672-.332zm20.43 2.542a2.337 2.337 0 00-.68.517c-.331.366-.343.687-.436 11.021-.093 10.2-.112 10.7-.465 12.042a20.7 20.7 0 01-2.155 5.316c-.872 1.447-.984 2.229-.424 2.941a1.746 1.746 0 001.893.475c1.2-.454 3.331-4.923 4.169-8.725.281-1.276.309-2.386.309-12.08V37.142l-.556-.5a1.4 1.4 0 00-1.655-.331zm-13.607 7.646a2.344 2.344 0 00-.68.517c-.323.358-.344.681-.425 6.434l-.086 6.056-.475.966c-1.718 3.494-6.858 3.8-8.766.526-.743-1.276-1.275-1.747-1.978-1.747a1.636 1.636 0 00-1.641 2.161 8.8 8.8 0 002.262 3.175 8.505 8.505 0 0013.622-3.594c.354-.938.369-1.231.373-7.319v-6.343l-.556-.5a1.4 1.4 0 00-1.65-.332zm-34.018 3.4a2.341 2.341 0 00-.68.517c-.32.356-.34.617-.34 4.434v4.053l.435.434a2.264 2.264 0 001.058.535 1.1 1.1 0 001.224-.5l.6-.6v-7.88l-.578-.578a1.38 1.38 0 00-1.719-.417zm6.8 0A1.657 1.657 0 0023.954 50a2.231 2.231 0 001.036.528 1.141 1.141 0 001.178-.413 1.3 1.3 0 00.572-1.225 1.285 1.285 0 00-.552-1.206 1.4 1.4 0 00-1.652-.33zm47.606 4.254a2.265 2.265 0 00-.723.607c-.324.411-.364.68-.367 2.436-.012 8.272-2.524 14.2-8.459 19.977-1.275 1.241-1.4 1.425-1.4 2.015a1.64 1.64 0 001.687 1.644c.614 0 .843-.133 2.032-1.179a29.022 29.022 0 009.522-22.494l-.059-2.181-.555-.5a1.409 1.409 0 00-1.675-.327zm-47.603 2.54a2.335 2.335 0 00-.68.519c-.731.816-.217 5.538.947 8.7a22.235 22.235 0 0031.423 11.624c2-1.115 2.328-1.452 2.328-2.4a1.236 1.236 0 00-.477-1.208c-.721-.619-1.49-.545-2.851.277a21.645 21.645 0 01-5.431 2.248 22.329 22.329 0 01-8.387-.008A18.648 18.648 0 0126.99 57.7c-.289-2.77-.3-2.808-.857-3.277a1.389 1.389 0 00-1.597-.273zm33.645 2.73c-.518.208-.862.79-1.234 2.09a12.829 12.829 0 01-2.489 4.55c-.8.922-.922 1.158-.922 1.775a1.5 1.5 0 001.633 1.605c.665 0 .82-.087 1.6-.892a15.445 15.445 0 003.582-6.677c.268-1.3.126-1.866-.57-2.29a1.564 1.564 0 00-1.6-.161zm-38.7 7.56c-1.1.619-1.079 1.507.11 3.911a28.855 28.855 0 0030.544 15.815c3.273-.543 6.729-1.694 7.313-2.435a1.588 1.588 0 00-.132-2.1c-.612-.684-1.211-.688-3.038-.02a25.4 25.4 0 01-31.6-12.7 17.835 17.835 0 00-1.351-2.373 1.948 1.948 0 00-1.847-.098zM3.086 72.165a2.267 2.267 0 00-.723.607C2 73.228 2 73.335 2 80.515v7.28l.5.555.5.555 7.425.048 7.417.047.583-.583a1.364 1.364 0 00.005-2.248l-.578-.578H5.413l-.048-6.3-.049-6.3-.555-.5a1.408 1.408 0 00-1.675-.326zm83.683 0a2.268 2.268 0 00-.723.607c-.356.452-.364.586-.364 6.634v6.172l-6.308.049-6.307.048-.5.555a1.394 1.394 0 000 2.118l.5.555 7.4.048 7.41.049.561-.5L89 88V72.991l-.556-.5a1.408 1.408 0 00-1.675-.326z" fill="#0f6768" fill-rule="evenodd"/></svg>