<svg xmlns="http://www.w3.org/2000/svg" width="65" height="65"><path data-name="premium-icon-discount-2543321 1 (Traced)" d="M31.083 2.177c-1.418.381-1.99.814-3.743 2.835a3.406 3.406 0 01-2.885 1.32 3.508 3.508 0 01-1.8-.385 5.667 5.667 0 00-8.164 4.274 5.557 5.557 0 01-.82 2.6c-.718.991-1.613 1.424-3.446 1.67a5.667 5.667 0 00-4.274 8.164 3.509 3.509 0 01.385 1.8 3.4 3.4 0 01-1.32 2.885 8.436 8.436 0 00-2.29 2.4 5.624 5.624 0 000 5.516 8.452 8.452 0 002.29 2.4 3.4 3.4 0 011.32 2.884 3.51 3.51 0 01-.385 1.8 5.667 5.667 0 004.274 8.163c1.833.245 2.728.679 3.446 1.67a5.558 5.558 0 01.82 2.6 5.654 5.654 0 007.654 4.479 5.066 5.066 0 012.671-.6 3.72 3.72 0 012.527 1.333 8.441 8.441 0 002.4 2.29 5.622 5.622 0 005.516 0 8.448 8.448 0 002.4-2.29 3.718 3.718 0 012.527-1.333 5.066 5.066 0 012.671.6 5.642 5.642 0 007.646-4.47 5.681 5.681 0 01.828-2.6c.716-.988 1.575-1.405 3.455-1.678a5.641 5.641 0 004.47-7.646 5.059 5.059 0 01-.6-2.671 3.716 3.716 0 011.333-2.527 8.457 8.457 0 002.29-2.4 5.625 5.625 0 000-5.516 8.441 8.441 0 00-2.29-2.4 3.718 3.718 0 01-1.333-2.527 5.057 5.057 0 01.6-2.671 5.654 5.654 0 00-4.479-7.654c-1.833-.245-2.728-.679-3.446-1.67a5.552 5.552 0 01-.82-2.6 5.667 5.667 0 00-8.163-4.274 3.509 3.509 0 01-1.8.385 3.4 3.4 0 01-2.885-1.32 8.463 8.463 0 00-2.4-2.29 5.75 5.75 0 00-4.18-.546zM34.2 4.2a4.106 4.106 0 011.777 1.632 6.094 6.094 0 002.7 2.014 4.5 4.5 0 001.875.27 4.251 4.251 0 002.324-.467 4.159 4.159 0 012.086-.471A3.508 3.508 0 0147.8 8.434a4.309 4.309 0 011.034 2.66 5.384 5.384 0 001.531 3.33 5.543 5.543 0 003.666 1.754 4.194 4.194 0 012.779 1.256 3.358 3.358 0 011.013 2.61 4.125 4.125 0 01-.467 2.086 4.338 4.338 0 00-.475 2.265 4.969 4.969 0 00.963 3.239 5.432 5.432 0 001.325 1.39 4.158 4.158 0 011.652 1.807 2.848 2.848 0 01.337 1.609 3.843 3.843 0 01-1.911 3.474 5.481 5.481 0 00-2.366 4.69 4.34 4.34 0 00.475 2.265 4.173 4.173 0 01.47 2.085 3.509 3.509 0 01-1.261 2.846 4.314 4.314 0 01-2.66 1.034 5.382 5.382 0 00-3.33 1.531 5.513 5.513 0 00-1.74 3.539 4.31 4.31 0 01-1.034 2.66 3.508 3.508 0 01-2.846 1.261 4.166 4.166 0 01-2.086-.47 4.34 4.34 0 00-2.265-.474 5.479 5.479 0 00-4.689 2.366 3.866 3.866 0 01-3.415 1.916 3.094 3.094 0 01-1.609-.335 3.737 3.737 0 01-1.8-1.583 5.564 5.564 0 00-7-1.866 4.109 4.109 0 01-2.044.445 3.358 3.358 0 01-2.611-1.012 4.2 4.2 0 01-1.255-2.779 5.548 5.548 0 00-1.754-3.665 5.434 5.434 0 00-3.457-1.546 4.2 4.2 0 01-2.779-1.256 3.358 3.358 0 01-1.012-2.611 4.105 4.105 0 01.468-2.085 4.254 4.254 0 00.467-2.324 4.5 4.5 0 00-.27-1.875 6.215 6.215 0 00-2.074-2.752 3.759 3.759 0 01-1.561-1.7 3.907 3.907 0 01.2-3.8 6.665 6.665 0 011.241-1.245 5.739 5.739 0 001.959-2.334 5.446 5.446 0 00.008-4.762 4.084 4.084 0 01-.438-2.027 3.357 3.357 0 011.012-2.61 4.2 4.2 0 012.782-1.256 5.47 5.47 0 002.639-.907 5.567 5.567 0 002.569-4.3 4.2 4.2 0 011.256-2.782 3.356 3.356 0 012.611-1.012 4.077 4.077 0 012.027.438c2.887 1.184 5.2.466 7.364-2.288A3.871 3.871 0 0134.2 4.2zm-3.485 6.694a21.68 21.68 0 00-15.576 34.572c.719.971.98 1.157 1.515 1.078a.927.927 0 00.669-.953 8.6 8.6 0 00-.913-1.411 23.541 23.541 0 01-2.843-5.6 19.936 19.936 0 012.026-16.537 17.9 17.9 0 012.656-3.35 19.139 19.139 0 017.919-5.024 19.807 19.807 0 0112.409-.1 23.569 23.569 0 015.6 2.843 8.672 8.672 0 001.41.913.861.861 0 00.95-.836c.046-.543-.239-.829-2-2a21.853 21.853 0 00-9.924-3.555 23.977 23.977 0 00-3.901-.045zm17.473 7.934a.805.805 0 00-.325.812 8.175 8.175 0 00.861 1.371 24.522 24.522 0 012.659 5.179 20.249 20.249 0 01.046 12.394 20.415 20.415 0 01-10.145 11.752 19.891 19.891 0 01-20.7-1.925c-.831-.637-1.085-.717-1.542-.481a.807.807 0 00-.384 1.083 12.375 12.375 0 003.213 2.364 22.589 22.589 0 007.229 2.534 26.753 26.753 0 006.776 0 21.77 21.77 0 0018.036-18.032 26.94 26.94 0 000-6.836 22.276 22.276 0 00-3.886-9.284c-.948-1.273-1.278-1.441-1.841-.936zm-22.743.451a5.59 5.59 0 00-4.264 5.6c0 3.576 3.011 6.337 6.058 5.556A4.544 4.544 0 0029.612 29c2.792-2.952 1.71-8.256-1.944-9.531a4.95 4.95 0 00-2.226-.195zM36.8 20.432c-.379.314-9.692 22.581-9.644 23.059a.86.86 0 001.385.589c.2-.128 9.676-22.686 9.676-23.024a1.087 1.087 0 00-.875-.831 1 1 0 00-.542.207zm-9.345.882c1.474.695 2.307 2.956 1.77 4.8a3.175 3.175 0 01-3.046 2.621 3.044 3.044 0 01-2.849-2.081 3.332 3.332 0 01-.309-1.8 3.068 3.068 0 01.418-1.962 2.928 2.928 0 014.02-1.577zM37.629 34.6a5.614 5.614 0 00-3.818 5.452c0 4.109 3.6 6.845 6.951 5.282a5.629 5.629 0 003.026-4.847A5.758 5.758 0 0042.1 35.89a4.392 4.392 0 00-4.471-1.29zm2.552 2c2.4 1.409 2.462 5.525.1 6.936a2.615 2.615 0 01-3.194-.171 4.3 4.3 0 01-1.266-4.638c.638-2.104 2.689-3.105 4.359-2.127z" fill="#0f6768" fill-rule="evenodd"/></svg>