<svg xmlns="http://www.w3.org/2000/svg" width="58" height="64"><path data-name="premium-icon-secured-2543400 1 (Traced)" d="M28.221 2.137a6.327 6.327 0 00-1.464.733L24.936 4.1a32.613 32.613 0 01-7.816 3.587A50.268 50.268 0 015.113 9.674c-1.658.126-2.24.426-2.772 1.432L2 11.749l.065 3.225c.035 1.774.149 3.99.252 4.926 1.969 17.854 9.644 31.9 21.975 40.21 2.577 1.737 4.43 2.2 6.836 1.7a9.578 9.578 0 003.763-1.8c8.858-6.041 15.228-14.9 18.932-26.334A66.411 66.411 0 0057 13.981c0-2.251 0-2.268-.328-2.891a2.267 2.267 0 00-.88-.968c-.59-.364-.361-.33-4.43-.658-7.294-.588-13.762-2.757-18.477-6.193a9.581 9.581 0 00-1.645-.987 5.726 5.726 0 00-3.019-.147zM30.9 4.083c.258.153 1.149.736 1.978 1.3C38.143 8.932 44.862 10.9 53.494 11.4c1.9.112 1.794-.108 1.708 3.714A60.235 60.235 0 0153.288 29.3C50.2 41.582 43.447 51.879 34.256 58.312c-2.062 1.444-3.245 1.923-4.744 1.923s-2.682-.48-4.744-1.923C14.287 50.975 7.115 38.8 4.668 24.187a57.026 57.026 0 01-.847-9.13c-.083-3.757-.182-3.542 1.71-3.657a46.307 46.307 0 0014.82-3 31.3 31.3 0 006.642-3.579c1.359-1 1.674-1.125 2.716-1.065a2.549 2.549 0 011.191.327zM29.043 6.4a13.863 13.863 0 00-1.616.977c-4.765 3.183-10.907 5.237-18.15 6.072a16.29 16.29 0 00-2.19.345 2.182 2.182 0 00-.9 1.222 56.72 56.72 0 00.833 8.854 52.869 52.869 0 0010.448 24.41 46.887 46.887 0 008.58 8.07c1.514 1.086 2.224 1.431 3.093 1.51 1.365.123 2.211-.272 4.9-2.29C42.9 48.9 49 38.662 51.582 26.114a62.052 62.052 0 001.22-9.929c.024-1.28 0-1.458-.215-1.751-.5-.672-.705-.744-2.815-.985-7.528-.859-13.309-2.84-18.674-6.4-.957-.633-1.53-.814-2.055-.649zm-.47 5.857v3.5l-.8.075a13.848 13.848 0 00-11.58 17.925 12.6 12.6 0 002.14 4.055.86.86 0 001.055-.093c.4-.374.329-.875-.266-1.79a12.109 12.109 0 01-1.274-9.988 12.665 12.665 0 013.3-5.231 15.606 15.606 0 013.263-2.169 12.288 12.288 0 0111.6.936c.781.517 1.255.551 1.6.112.516-.655.268-1.038-1.272-1.965a14.662 14.662 0 00-5.564-1.824h-.323V8.771l1.263.767a44.311 44.311 0 0018.512 5.736l.922.081-.077 1.07c-.646 8.975-2.334 15.675-5.644 22.413a41.3 41.3 0 01-8.16 11.557 41.267 41.267 0 01-6.493 5.328l-.323.2v-12.56l.441-.071a13.868 13.868 0 0010.445-20.661c-.88-1.5-1.327-1.812-1.939-1.358-.486.361-.474.852.042 1.628a12.1 12.1 0 011.521 9.954 10.535 10.535 0 01-1.505 3.26 11.238 11.238 0 01-2.8 3.017 11.834 11.834 0 01-7.957 2.427 11.587 11.587 0 01-5.828-1.844 4.938 4.938 0 00-1.121-.584.954.954 0 00-.814.865c0 .459.134.637.822 1.1a14.76 14.76 0 006.138 2.2l.675.078v12.553l-.323-.2a41.5 41.5 0 01-6.5-5.329 46.736 46.736 0 01-11.908-21.74 62.653 62.653 0 01-1.462-7.7c-.237-1.9-.535-5.506-.46-5.56.021-.015.856-.119 1.855-.23a43.213 43.213 0 0017.742-5.757c.549-.347 1.012-.636 1.028-.641s.029 1.565.029 3.49zm5.927 12.23c-.129.064-1.874 1.877-3.876 4.028s-3.677 3.9-3.719 3.892-.773-.89-1.622-1.954-1.63-2-1.736-2.081a.827.827 0 00-1.066.124c-.512.544-.395.785 1.575 3.247 1.01 1.257 1.971 2.432 2.144 2.609.494.52.872.44 1.672-.352 1.465-1.451 7.652-8.145 7.773-8.41a.794.794 0 00-.368-1.058.614.614 0 00-.777-.045z" fill="#0f6768" fill-rule="evenodd"/></svg>