<svg xmlns="http://www.w3.org/2000/svg" width="106" height="90"><path data-name="free-icon-graphics-1477649 1 (Traced)" d="M14.382 9.259a6.043 6.043 0 00-2.966 3.14c-.186.679-.232 3.786-.189 12.647.065 13.122-.015 12.441 1.456 12.441s1.387.691 1.5-12.586l.1-11.891.455-.456.455-.456h75.482l.455.456c.4.4.463.688.523 2.5.057 1.74.129 2.113.484 2.5a1.377 1.377 0 002.054-.041c.453-.453.49-.638.49-2.427a13.351 13.351 0 00-.243-2.76 5.981 5.981 0 00-3.076-3.081c-1.125-.338-75.923-.319-76.98.014zm6.692 6.168a4.169 4.169 0 00-2.79 2.235l-.506 1.017v22.4c0 22.317 0 22.408.417 23.268a4.452 4.452 0 002.564 2.235c1.087.326 63.263.326 64.35 0a4.452 4.452 0 002.563-2.235c.416-.86.418-.951.418-23.268v-22.4l-.506-1.017a4.142 4.142 0 00-2.89-2.247c-1.17-.268-62.477-.256-63.62.012zm63.654 3.3c.35.317.365 1.271.365 22.307 0 21.709 0 21.98-.4 22.375-.363.363-.666.4-3.3.4H78.5V26.032l-.539-.425c-.52-.409-.706-.423-5.111-.365-5.7.075-5.336-.172-5.336 3.571v2.566l-3.614.063c-4.515.078-4.376-.019-4.376 3.07v2.062l-3.59.066c-4.591.085-4.46-.006-4.568 3.169l-.075 2.2h-3.542c-4.448 0-4.274-.121-4.371 3.021l-.067 2.18h-3.488c-3.436 0-3.494.007-3.977.491-.434.435-.49.665-.49 2v1.51H31.8c-3.3 0-3.589.029-4 .408-.431.4-.437.5-.437 6.3v5.895h-2.9c-2.63 0-2.933-.037-3.3-.4-.395-.4-.4-.666-.4-22.341 0-20.135.027-21.971.331-22.307.328-.351 1.577-.366 31.806-.366 29 0 31.491.026 31.828.332zm7.819 2.473a1.477 1.477 0 00-.649.574c-.147.275-.213 7.688-.213 24.018v23.62h-77.5V41.589l-.49-.491a1.316 1.316 0 00-2.015 0l-.491.491v27.784l-2.347.079a8.038 8.038 0 00-3.27.5 6.626 6.626 0 00-3.061 2.918A4.912 4.912 0 002 75.607a5.7 5.7 0 001.678 4.481c1.632 1.635 3.253 1.993 8.6 1.9 3.65-.065 3.747-.078 4.12-.539a1.676 1.676 0 00.179-1.833c-.335-.627-1.508-.794-5.611-.795-3.731 0-3.946-.022-4.576-.452a3.118 3.118 0 01-1.531-2.377 3.165 3.165 0 011.725-3.124l.891-.45h90.917l.891.45a2.78 2.78 0 011.353 1.35 3.05 3.05 0 01-1.036 4.088l-.552.412-39.115.1c-38.11.1-39.126.11-39.536.481a1.675 1.675 0 000 2.238c.409.372 1.379.383 38.7.438 26.912.04 38.661-.008 39.559-.161a5.987 5.987 0 004.789-3.579 6.262 6.262 0 00-1.4-7.124c-1.384-1.253-2.343-1.57-5.012-1.659l-2.347-.079-.011-23.636c-.007-25.026.032-23.99-.929-24.5a1.034 1.034 0 00-1.199-.037zm-45.182 3.916c-4.409.422-4.915.508-5.343.911a1.429 1.429 0 00.441 2.383 8.529 8.529 0 002.589-.025 17.379 17.379 0 012.306-.142c.114.038-4 2.994-9.14 6.568s-9.506 6.655-9.7 6.847a1.64 1.64 0 000 2 2.376 2.376 0 00.855.442c.6.15 1.134-.2 12.378-8.063 4.23-2.959 7.713-5.361 7.742-5.339a22.557 22.557 0 01-.949 2.181 12.088 12.088 0 00-1 2.7 1.463 1.463 0 002.364 1.077 91.889 91.889 0 004.538-9.43c.522-1.255.384-2.025-.431-2.4-.625-.281-.729-.276-6.65.29zm28.14 20.893v17.805h-4.993V28.2h4.994v17.809zm-7.99 3.1v14.7h-4.993V34.405h4.994v14.7zm-7.99 2.7v12h-4.993V39.807h4.994v12zm-8.19 2.6v9.4h-4.993v-18.8h4.994v9.4zm-7.99 2.6v6.8h-4.993V50.21h4.994v6.8zm-7.99 2v4.8h-4.993v-9.6h4.994v4.8z" fill="#0f6768" fill-rule="evenodd"/></svg>