<svg xmlns="http://www.w3.org/2000/svg" width="78" height="90"><path data-name="premium-icon-registration-form-5446301 1 (Traced)" d="M12.483 2.066a1.905 1.905 0 00-.673.365c-.291.257-.314.925-.314 9.161v8.884l-3.006.061c-3.434.07-3.881.209-5.184 1.616-1.43 1.547-1.336-.129-1.28 22.811l.05 20.442.477.8a4.947 4.947 0 002.394 2.177l.9.412 14.048.05 14.046.055-.121.664c-.5 2.726-2.6 5.623-6.46 8.887a17.713 17.713 0 00-2.121 1.978 1.207 1.207 0 00.336 1.411l.44.438H55.4l.39-.413a1.53 1.53 0 00.39-1c0-.493-.169-.737-1.032-1.494-4.18-3.668-6.786-7.151-7.469-9.985l-.119-.486 12.788-.049 12.788-.051.9-.412a4.947 4.947 0 002.394-2.177l.477-.8.045-20.511L77 24.39l-.427-.915a5.046 5.046 0 00-2.753-2.609c-.811-.3-1.4-.36-3.651-.36h-2.686v-8.9c0-8.819 0-8.9-.377-9.239S66.009 2.027 39.785 2c-14.819-.01-27.104.018-27.302.066zM64.792 32.11v27.315h-50.6V4.8h50.6v27.31zM36.434 9.269a12.145 12.145 0 00-8.908 6.479 12.124 12.124 0 00-1.133 5.188 10.551 10.551 0 003.489 8.235 10.688 10.688 0 008.261 3.47 11.565 11.565 0 0010.6-6.506c.7-1.424.776-2.252.253-2.772-.761-.757-1.829-.367-2.357.86a13.433 13.433 0 01-.828 1.574l-.469.738-1.089-.9a9.261 9.261 0 00-12.243.11l-.949.862-.544-.853a8.966 8.966 0 012.764-12.42 8.6 8.6 0 014.832-1.392 8.783 8.783 0 016.634 2.8c.954.972 1.2 1.128 1.753 1.128a1.24 1.24 0 001.235-1.707A10.487 10.487 0 0044.6 11.04a12.6 12.6 0 00-4.857-1.775 9.026 9.026 0 00-3.309.004zm.5 4.519a3.85 3.85 0 00-2.645 3.726 4.66 4.66 0 002.8 4.171c3.54 1.345 6.594-3.967 3.948-6.865a4.224 4.224 0 00-4.105-1.032zm12.384 2.018c-.717.852-1.505 1.776-1.752 2.055l-.448.506-.788-.626c-1.063-.846-2.051-.806-2.54.1-.377.7-.034 1.328 1.334 2.445a18.9 18.9 0 001.691 1.271c.779.415 1.241.059 3.541-2.727 1.83-2.218 2.23-2.8 2.233-3.281a1.245 1.245 0 00-1.34-1.294c-.569.003-.749.145-1.932 1.551zm-10.35.466a1.719 1.719 0 01.042 2.628.992.992 0 01-1.747-.018 1.782 1.782 0 01.008-2.472 1.45 1.45 0 011.696-.138zM11.452 41.349l.048 18.076H4.677V42.153c0-17 .006-17.282.362-17.863.576-.941 1.182-1.1 3.944-1.057l2.423.04zm61.506-17.908a2.461 2.461 0 01.98.848c.357.582.362.854.363 17.864v17.272h-6.818v-18c0-9.9.054-18.055.12-18.121a19.2 19.2 0 015.355.137zm-31.83 3.089a7.605 7.605 0 011.738 1.17l.595.611-.684.4a9.829 9.829 0 01-6.385 1.089 11.678 11.678 0 01-2.3-.845l-1.267-.631.4-.419a6.474 6.474 0 015.216-1.992 5.282 5.282 0 012.687.617zM21.333 39.256a.923.923 0 00-.42 1.026 2.209 2.209 0 00.4.8c.266.294 1.363.312 18.172.312s17.906-.019 18.172-.312a2.2 2.2 0 00.405-.8.924.924 0 00-.421-1.026l-.543-.54H21.877zm9.119 6.079a1.3 1.3 0 00-.107 1.917l.366.391h17.558l.366-.391a1.292 1.292 0 00-.075-1.852l-.44-.439h-8.6c-8.42.003-8.604.011-9.068.373zm5.509 5.785a1.444 1.444 0 00-.492.715 1.642 1.642 0 00.709 1.588 50.792 50.792 0 006.623 0 1.643 1.643 0 00.709-1.588c-.224-.887-.6-.979-4.021-.979-2.489 0-3.229.056-3.528.264zM74.3 63.281a2.62 2.62 0 01-1.062 2.445c-.484.284-2.749.3-33.75.3s-33.267-.021-33.75-.3a2.621 2.621 0 01-1.062-2.445v-1H74.3v1zm-29.353 6.365c.3 1.994 2.225 5.253 4.849 8.212l1.543 1.742h-10.5c-5.775 0-10.5-.051-10.5-.114a15.058 15.058 0 011.407-1.573c2.6-2.7 4.279-5.475 4.73-7.841l.224-1.184h8.132zm-29.9 15.767a1.191 1.191 0 00-.473 1.669c.4.709 1 .937 2.218.841a1.749 1.749 0 001.48-.555 1.058 1.058 0 00-.119-1.713 1.639 1.639 0 00-1.57-.515 4.171 4.171 0 00-1.54.273zm5.9.088a1.316 1.316 0 00.444 2.292c.774.268 37.779.279 38.487.011a1.324 1.324 0 00.625-2.16l-.343-.422-19.369-.046-19.371-.047zm42.369-.088a1.191 1.191 0 00-.473 1.669c.4.709 1 .937 2.218.841a1.749 1.749 0 001.48-.555 1.058 1.058 0 00-.118-1.713 1.639 1.639 0 00-1.57-.515 4.173 4.173 0 00-1.54.273z" fill="#0f6768" fill-rule="evenodd"/></svg>