<svg xmlns="http://www.w3.org/2000/svg" width="26" height="26"><path d="M21.5 4.5A11.951 11.951 0 002.695 18.915L1 25.106l6.335-1.661a11.947 11.947 0 005.711 1.455h.005A11.951 11.951 0 0021.5 4.5zm-8.45 18.381A9.92 9.92 0 017.991 21.5l-.363-.215-3.759.986 1-3.664-.236-.376a9.932 9.932 0 118.417 4.65zm5.45-7.436c-.3-.149-1.767-.872-2.04-.971a.466.466 0 00-.672.149c-.2.3-.771.971-.945 1.17a.458.458 0 01-.647.075 8.15 8.15 0 01-2.4-1.483 8.954 8.954 0 01-1.661-2.068.434.434 0 01.131-.609c.134-.134.3-.349.448-.523a2.094 2.094 0 00.3-.5.548.548 0 00-.025-.523c-.075-.149-.672-1.619-.921-2.216a.6.6 0 00-.672-.512c-.174-.009-.373-.01-.572-.01a1.1 1.1 0 00-.8.374 3.351 3.351 0 00-1.045 2.49A5.807 5.807 0 008.2 13.379a13.311 13.311 0 005.1 4.507 17.541 17.541 0 001.7.629 4.1 4.1 0 001.881.118 3.074 3.074 0 002.015-1.42 2.483 2.483 0 00.174-1.419 1.487 1.487 0 00-.57-.349z" fill="#0f6768" fill-rule="evenodd"/></svg>