<svg xmlns="http://www.w3.org/2000/svg" width="26" height="26"><path d="M24.07 1.994a2.96 2.96 0 00-.934.223c-.285.113-1.641.683-3.7 1.546l-7.386 3.11C6.754 9.1 1.546 11.3 1.546 11.3l.063-.024a3.217 3.217 0 00-.734.375 2.027 2.027 0 00-.586.566 1.665 1.665 0 00-.277 1.109 2.011 2.011 0 00.894 1.394 2.975 2.975 0 00.664.356h.008l4.883 1.645c.219.7 1.488 4.875 1.793 5.836a3.576 3.576 0 00.574 1.207 1.414 1.414 0 00.379.352 1.149 1.149 0 00.183.086.171.171 0 00.063.019l-.053-.012a.3.3 0 01.039.019.748.748 0 00.117.024 1.653 1.653 0 001.395-.246l.035-.027 2.883-2.625 4.831 3.707.11.046a2.565 2.565 0 002.566-.238 2.614 2.614 0 00.754-1l.035-.09L25.9 4.654a2.746 2.746 0 00.016-1.344 1.805 1.805 0 00-.781-1.047 1.869 1.869 0 00-1.065-.269zm-.1 2.05a.575.575 0 01-.019.176v.012l-3.7 18.93a.429.429 0 01-.117.144c-.078.062-.141.1-.465-.027l-5.91-4.531L10.187 22l.75-4.789 9.656-9c.4-.371.266-.449.266-.449.027-.453-.6-.133-.6-.133L8.082 15.173v-.019l-5.84-1.964h-.016a.287.287 0 00.031-.011l.031-.016.031-.011 10.509-4.435c2.652-1.118 5.324-2.242 7.379-3.11s3.574-1.5 3.66-1.531a.16.16 0 01.101-.032z" fill="#0f6768" fill-rule="evenodd"/></svg>