<svg xmlns="http://www.w3.org/2000/svg" width="26" height="26"><path data-name="free-icon-instagram-1384031 1 (Traced)" d="M8.141.027a10.549 10.549 0 00-3.806.7 6.1 6.1 0 00-2.12 1.416A6.755 6.755 0 00.384 5.414C.071 6.612 0 7.991 0 12.988 0 17.9.066 19.3.36 20.494a6.866 6.866 0 006.14 5.325 63.972 63.972 0 006.56.181c3.436 0 5.417-.049 6.309-.155a7.051 7.051 0 006.559-6.68c.1-.814.1-11.662 0-12.428a7.962 7.962 0 00-1.394-3.816 8.411 8.411 0 00-1.62-1.554 8.4 8.4 0 00-4.15-1.294C17.944 0 9.531-.031 8.141.027zm11.016 2.454a4.838 4.838 0 013.049 1.354 4 4 0 011.038 1.642c.419 1.172.457 1.792.457 7.535 0 3.309-.019 4.9-.064 5.435a5.3 5.3 0 01-1.327 3.595 5.173 5.173 0 01-3.6 1.519c-.9.082-8.35.123-10.065.054-.775-.031-1.587-.081-1.8-.111a5.735 5.735 0 01-2.473-.9 5.714 5.714 0 01-1.159-1.256 6.717 6.717 0 01-.767-2.98c-.153-2.307-.1-10.228.073-11.538a4.785 4.785 0 011.4-3.046 5.574 5.574 0 013.812-1.368c.382-.023 2.987-.036 5.788-.029 4.344.013 5.172.025 5.638.094zm.152 2.173a1.425 1.425 0 00-.851 1.4 1.341 1.341 0 00.442 1.082 1.349 1.349 0 001.089.438 1.255 1.255 0 00.7-.141 1.463 1.463 0 00.845-1.288 1.338 1.338 0 00-.443-1.192 1.391 1.391 0 00-1.132-.453 1.185 1.185 0 00-.65.154zm-7.468 1.757a6.558 6.558 0 00-3.523 1.868 6.353 6.353 0 00-1.962 4.709 6.281 6.281 0 00.676 2.961 6.693 6.693 0 007.613 3.517 6.308 6.308 0 003.027-1.685 6.448 6.448 0 001.7-2.659 6.093 6.093 0 00.336-2.135 6.078 6.078 0 00-.331-2.118 6.323 6.323 0 00-1.538-2.511 6.635 6.635 0 00-3.65-1.951 9.246 9.246 0 00-2.348.004zm2.017 2.328a4.326 4.326 0 01.782 8.27 3.786 3.786 0 01-1.783.285 3.438 3.438 0 01-1.095-.162 4.353 4.353 0 01-2.986-3.3 4.935 4.935 0 01.107-2.114 4.4 4.4 0 013.28-2.973 5.4 5.4 0 011.695-.007z" fill="#0f6768" fill-rule="evenodd"/></svg>